# This file uses centimeters as units for non-parametric coordinates.

mtllib plain.mtl
g default
v 0.245617 0.000000 0.000000
v 0.243680 0.000000 -0.030784
v 0.237901 0.000000 -0.061082
v 0.228369 0.000000 -0.090418
v 0.215236 0.000000 -0.118327
v 0.198708 0.000000 -0.144370
v 0.179047 0.000000 -0.168136
v 0.156562 0.000000 -0.189251
v 0.131608 0.000000 -0.207381
v 0.104579 0.000000 -0.222241
v 0.075900 0.000000 -0.233596
v 0.046024 0.000000 -0.241267
v 0.015422 0.000000 -0.245132
v -0.015422 0.000000 -0.245132
v -0.046024 0.000000 -0.241267
v -0.075900 0.000000 -0.233596
v -0.104579 0.000000 -0.222241
v -0.131608 0.000000 -0.207381
v -0.156562 0.000000 -0.189251
v -0.179047 0.000000 -0.168136
v -0.198708 0.000000 -0.144370
v -0.215236 0.000000 -0.118327
v -0.228369 0.000000 -0.090418
v -0.237901 0.000000 -0.061082
v -0.243681 0.000000 -0.030784
v -0.245617 0.000000 0.000000
v -0.243681 0.000000 0.030784
v -0.237901 0.000000 0.061083
v -0.228369 0.000000 0.090418
v -0.215236 0.000000 0.118327
v -0.198708 0.000000 0.144370
v -0.179047 0.000000 0.168137
v -0.156562 0.000000 0.189251
v -0.131608 0.000000 0.207381
v -0.104579 0.000000 0.222241
v -0.075900 0.000000 0.233596
v -0.046024 0.000000 0.241267
v -0.015423 0.000000 0.245133
v 0.015422 0.000000 0.245133
v 0.046024 0.000000 0.241267
v 0.075900 0.000000 0.233596
v 0.104579 0.000000 0.222241
v 0.131608 0.000000 0.207381
v 0.156562 0.000000 0.189251
v 0.179047 0.000000 0.168137
v 0.198709 0.000000 0.144370
v 0.215236 0.000000 0.118327
v 0.228369 0.000000 0.090418
v 0.237901 0.000000 0.061083
v 0.243681 0.000000 0.030784
v 1.000000 0.000000 0.000000
v 0.992115 0.000000 -0.125333
v 0.968583 0.000000 -0.248690
v 0.929776 0.000000 -0.368125
v 0.876307 0.000000 -0.481754
v 0.809017 0.000000 -0.587785
v 0.728969 0.000000 -0.684547
v 0.637424 0.000000 -0.770513
v 0.535827 0.000000 -0.844328
v 0.425779 0.000000 -0.904827
v 0.309017 0.000000 -0.951057
v 0.187381 0.000000 -0.982287
v 0.062791 0.000000 -0.998027
v -0.062790 0.000000 -0.998027
v -0.187381 0.000000 -0.982288
v -0.309017 0.000000 -0.951057
v -0.425779 0.000000 -0.904827
v -0.535827 0.000000 -0.844328
v -0.637424 0.000000 -0.770514
v -0.728969 0.000000 -0.684547
v -0.809017 0.000000 -0.587786
v -0.876307 0.000000 -0.481754
v -0.929777 0.000000 -0.368125
v -0.968584 0.000000 -0.248690
v -0.992115 0.000000 -0.125333
v -1.000001 0.000000 -0.000000
v -0.992115 0.000000 0.125333
v -0.968584 0.000000 0.248690
v -0.929777 0.000000 0.368125
v -0.876307 0.000000 0.481754
v -0.809018 0.000000 0.587786
v -0.728969 0.000000 0.684547
v -0.637424 0.000000 0.770514
v -0.535827 0.000000 0.844328
v -0.425780 0.000000 0.904828
v -0.309017 0.000000 0.951057
v -0.187382 0.000000 0.982288
v -0.062791 0.000000 0.998028
v 0.062790 0.000000 0.998028
v 0.187381 0.000000 0.982288
v 0.309017 0.000000 0.951057
v 0.425780 0.000000 0.904828
v 0.535827 0.000000 0.844329
v 0.637425 0.000000 0.770514
v 0.728969 0.000000 0.684548
v 0.809018 0.000000 0.587786
v 0.876307 0.000000 0.481754
v 0.929777 0.000000 0.368125
v 0.968584 0.000000 0.248690
v 0.992116 0.000000 0.125333
vt 0.000000 0.750000
vt 0.020000 0.750000
vt 0.040000 0.750000
vt 0.060000 0.750000
vt 0.080000 0.750000
vt 0.100000 0.750000
vt 0.120000 0.750000
vt 0.140000 0.750000
vt 0.160000 0.750000
vt 0.180000 0.750000
vt 0.200000 0.750000
vt 0.220000 0.750000
vt 0.240000 0.750000
vt 0.260000 0.750000
vt 0.280000 0.750000
vt 0.300000 0.750000
vt 0.320000 0.750000
vt 0.340000 0.750000
vt 0.360000 0.750000
vt 0.380000 0.750000
vt 0.400000 0.750000
vt 0.420000 0.750000
vt 0.440000 0.750000
vt 0.460000 0.750000
vt 0.480000 0.750000
vt 0.500000 0.750000
vt 0.520000 0.750000
vt 0.540000 0.750000
vt 0.560000 0.750000
vt 0.580000 0.750000
vt 0.600000 0.750000
vt 0.620000 0.750000
vt 0.640000 0.750000
vt 0.660000 0.750000
vt 0.680000 0.750000
vt 0.700000 0.750000
vt 0.720000 0.750000
vt 0.740000 0.750000
vt 0.760000 0.750000
vt 0.780000 0.750000
vt 0.800000 0.750000
vt 0.820000 0.750000
vt 0.840000 0.750000
vt 0.860000 0.750000
vt 0.880000 0.750000
vt 0.900000 0.750000
vt 0.920000 0.750000
vt 0.940000 0.750000
vt 0.960000 0.750000
vt 0.980000 0.750000
vt 1.000000 0.750000
vt 0.000000 0.500000
vt 0.020000 0.500000
vt 0.040000 0.500000
vt 0.060000 0.500000
vt 0.080000 0.500000
vt 0.100000 0.500000
vt 0.120000 0.500000
vt 0.140000 0.500000
vt 0.160000 0.500000
vt 0.180000 0.500000
vt 0.200000 0.500000
vt 0.220000 0.500000
vt 0.240000 0.500000
vt 0.260000 0.500000
vt 0.280000 0.500000
vt 0.300000 0.500000
vt 0.320000 0.500000
vt 0.340000 0.500000
vt 0.360000 0.500000
vt 0.380000 0.500000
vt 0.400000 0.500000
vt 0.420000 0.500000
vt 0.440000 0.500000
vt 0.460000 0.500000
vt 0.480000 0.500000
vt 0.500000 0.500000
vt 0.520000 0.500000
vt 0.540000 0.500000
vt 0.560000 0.500000
vt 0.580000 0.500000
vt 0.600000 0.500000
vt 0.620000 0.500000
vt 0.640000 0.500000
vt 0.660000 0.500000
vt 0.680000 0.500000
vt 0.700000 0.500000
vt 0.720000 0.500000
vt 0.740000 0.500000
vt 0.760000 0.500000
vt 0.780000 0.500000
vt 0.800000 0.500000
vt 0.820000 0.500000
vt 0.840000 0.500000
vt 0.860000 0.500000
vt 0.880000 0.500000
vt 0.900000 0.500000
vt 0.920000 0.500000
vt 0.940000 0.500000
vt 0.960000 0.500000
vt 0.980000 0.500000
vt 1.000000 0.500000
vn 0.000000 1.000000 0.000000
vn 0.000000 1.000000 0.000000
vn 0.000000 1.000000 0.000000
vn 0.000000 1.000000 0.000000
vn 0.000000 1.000000 0.000000
vn 0.000000 1.000000 0.000000
vn 0.000000 1.000000 0.000000
vn 0.000000 1.000000 0.000000
vn 0.000000 1.000000 0.000000
vn 0.000000 1.000000 0.000000
vn 0.000000 1.000000 0.000000
vn 0.000000 1.000000 0.000000
vn 0.000000 1.000000 0.000000
vn 0.000000 1.000000 0.000000
vn 0.000000 1.000000 0.000000
vn 0.000000 1.000000 0.000000
vn 0.000000 1.000000 0.000000
vn 0.000000 1.000000 0.000000
vn 0.000000 1.000000 0.000000
vn 0.000000 1.000000 0.000000
vn 0.000000 1.000000 0.000000
vn 0.000000 1.000000 0.000000
vn 0.000000 1.000000 0.000000
vn 0.000000 1.000000 0.000000
vn 0.000000 1.000000 0.000000
vn 0.000000 1.000000 0.000000
vn 0.000000 1.000000 0.000000
vn 0.000000 1.000000 0.000000
vn 0.000000 1.000000 0.000000
vn 0.000000 1.000000 0.000000
vn 0.000000 1.000000 0.000000
vn 0.000000 1.000000 0.000000
vn 0.000000 1.000000 0.000000
vn 0.000000 1.000000 0.000000
vn 0.000000 1.000000 0.000000
vn 0.000000 1.000000 0.000000
vn 0.000000 1.000000 0.000000
vn 0.000000 1.000000 0.000000
vn 0.000000 1.000000 0.000000
vn 0.000000 1.000000 0.000000
vn 0.000000 1.000000 0.000000
vn 0.000000 1.000000 0.000000
vn 0.000000 1.000000 0.000000
vn 0.000000 1.000000 0.000000
vn 0.000000 1.000000 0.000000
vn 0.000000 1.000000 0.000000
vn 0.000000 1.000000 0.000000
vn 0.000000 1.000000 0.000000
vn 0.000000 1.000000 0.000000
vn 0.000000 1.000000 0.000000
vn 0.000000 1.000000 0.000000
vn 0.000000 1.000000 0.000000
vn 0.000000 1.000000 0.000000
vn 0.000000 1.000000 0.000000
vn 0.000000 1.000000 0.000000
vn 0.000000 1.000000 0.000000
vn 0.000000 1.000000 0.000000
vn 0.000000 1.000000 0.000000
vn 0.000000 1.000000 0.000000
vn 0.000000 1.000000 0.000000
vn 0.000000 1.000000 0.000000
vn 0.000000 1.000000 0.000000
vn 0.000000 1.000000 0.000000
vn 0.000000 1.000000 0.000000
vn 0.000000 1.000000 0.000000
vn 0.000000 1.000000 0.000000
vn 0.000000 1.000000 0.000000
vn 0.000000 1.000000 0.000000
vn 0.000000 1.000000 0.000000
vn 0.000000 1.000000 0.000000
vn 0.000000 1.000000 0.000000
vn 0.000000 1.000000 0.000000
vn 0.000000 1.000000 0.000000
vn 0.000000 1.000000 0.000000
vn 0.000000 1.000000 0.000000
vn 0.000000 1.000000 0.000000
vn 0.000000 1.000000 0.000000
vn 0.000000 1.000000 0.000000
vn 0.000000 1.000000 0.000000
vn 0.000000 1.000000 0.000000
vn 0.000000 1.000000 0.000000
vn 0.000000 1.000000 0.000000
vn 0.000000 1.000000 0.000000
vn 0.000000 1.000000 0.000000
vn 0.000000 1.000000 0.000000
vn 0.000000 1.000000 0.000000
vn 0.000000 1.000000 0.000000
vn 0.000000 1.000000 0.000000
vn 0.000000 1.000000 0.000000
vn 0.000000 1.000000 0.000000
vn 0.000000 1.000000 0.000000
vn 0.000000 1.000000 0.000000
vn 0.000000 1.000000 0.000000
vn 0.000000 1.000000 0.000000
vn 0.000000 1.000000 0.000000
vn 0.000000 1.000000 0.000000
vn 0.000000 1.000000 0.000000
vn 0.000000 1.000000 0.000000
vn 0.000000 1.000000 0.000000
vn 0.000000 1.000000 0.000000
s 1
g pPipe1
usemtl initialShadingGroup
f 2/2/1 1/1/2 51/52/3 52/53/4
f 3/3/5 2/2/1 52/53/4 53/54/6
f 4/4/7 3/3/5 53/54/6 54/55/8
f 5/5/9 4/4/7 54/55/8 55/56/10
f 6/6/11 5/5/9 55/56/10 56/57/12
f 7/7/13 6/6/11 56/57/12 57/58/14
f 8/8/15 7/7/13 57/58/14 58/59/16
f 9/9/17 8/8/15 58/59/16 59/60/18
f 10/10/19 9/9/17 59/60/18 60/61/20
f 11/11/21 10/10/19 60/61/20 61/62/22
f 12/12/23 11/11/21 61/62/22 62/63/24
f 13/13/25 12/12/23 62/63/24 63/64/26
f 14/14/27 13/13/25 63/64/26 64/65/28
f 15/15/29 14/14/27 64/65/28 65/66/30
f 16/16/31 15/15/29 65/66/30 66/67/32
f 17/17/33 16/16/31 66/67/32 67/68/34
f 18/18/35 17/17/33 67/68/34 68/69/36
f 19/19/37 18/18/35 68/69/36 69/70/38
f 20/20/39 19/19/37 69/70/38 70/71/40
f 21/21/41 20/20/39 70/71/40 71/72/42
f 22/22/43 21/21/41 71/72/42 72/73/44
f 23/23/45 22/22/43 72/73/44 73/74/46
f 24/24/47 23/23/45 73/74/46 74/75/48
f 25/25/49 24/24/47 74/75/48 75/76/50
f 26/26/51 25/25/49 75/76/50 76/77/52
f 27/27/53 26/26/51 76/77/52 77/78/54
f 28/28/55 27/27/53 77/78/54 78/79/56
f 29/29/57 28/28/55 78/79/56 79/80/58
f 30/30/59 29/29/57 79/80/58 80/81/60
f 31/31/61 30/30/59 80/81/60 81/82/62
f 32/32/63 31/31/61 81/82/62 82/83/64
f 33/33/65 32/32/63 82/83/64 83/84/66
f 34/34/67 33/33/65 83/84/66 84/85/68
f 35/35/69 34/34/67 84/85/68 85/86/70
f 36/36/71 35/35/69 85/86/70 86/87/72
f 37/37/73 36/36/71 86/87/72 87/88/74
f 38/38/75 37/37/73 87/88/74 88/89/76
f 39/39/77 38/38/75 88/89/76 89/90/78
f 40/40/79 39/39/77 89/90/78 90/91/80
f 41/41/81 40/40/79 90/91/80 91/92/82
f 42/42/83 41/41/81 91/92/82 92/93/84
f 43/43/85 42/42/83 92/93/84 93/94/86
f 44/44/87 43/43/85 93/94/86 94/95/88
f 45/45/89 44/44/87 94/95/88 95/96/90
f 46/46/91 45/45/89 95/96/90 96/97/92
f 47/47/93 46/46/91 96/97/92 97/98/94
f 48/48/95 47/47/93 97/98/94 98/99/96
f 49/49/97 48/48/95 98/99/96 99/100/98
f 50/50/99 49/49/97 99/100/98 100/101/100
f 1/51/2 50/50/99 100/101/100 51/102/3
